<svg width="169" height="140" viewBox="0 0 169 140" fill="none"
    xmlns="http://www.w3.org/2000/svg">
    <path d="M7 69.0159C7 35.3265 34.3106 8.01587 68 8.01587C101.689 8.01587 129 35.3265 129 69.0159C129 102.705 101.689 130.016 68 130.016C34.3106 130.016 7 102.705 7 69.0159Z" fill="#FFEBBB"/>
    <path d="M151.08 90.544C147.02 90.544 143.66 93.344 142.68 97.1241H134V81.164H135.26C149.54 81.164 162 68.7041 162 54.5641C162 42.2441 154.86 32.5841 143.24 29.0841C142.12 20.1241 136.24 12.8441 127.7 9.62406C119.16 6.40406 109.78 8.22406 103.06 14.1041C96.48 11.1641 88.36 11.1641 81.08 14.2441C74.78 16.9041 70.02 21.6641 67.78 27.4041C63.58 27.1241 59.38 28.5241 56.16 31.4641C52.94 34.4041 51.12 38.3241 51.12 42.5241C42.3 44.6241 36 52.3241 36 61.7041C36 72.344 44.96 81.304 55.6 81.304H64V97.1241H55.32C54.34 93.344 50.98 90.544 46.92 90.544C42.16 90.544 38.24 94.4641 38.24 99.2241C38.24 103.984 42.16 107.904 46.92 107.904C50.98 107.904 54.34 105.104 55.32 101.324H66.1C67.22 101.324 68.2 100.344 68.2 99.2241V81.164H80.52V102.864L72.4 110.984C71.14 110.144 69.6 109.724 67.92 109.724C63.16 109.724 59.24 113.644 59.24 118.404C59.24 123.164 63.16 127.084 67.92 127.084C72.68 127.084 76.6 123.164 76.6 118.404C76.6 116.724 76.18 115.324 75.34 113.924L83.88 105.384C84.3 104.964 84.44 104.404 84.44 103.844V81.164H96.76V114.904C92.98 115.884 90.18 119.244 90.18 123.304C90.18 128.064 94.1 131.984 98.86 131.984C103.62 131.984 107.54 128.064 107.54 123.304C107.54 119.244 104.74 115.884 100.96 114.904V81.164H113.28V103.844C113.28 104.404 113.56 104.964 113.84 105.384L122.38 113.924C121.54 115.184 121.12 116.724 121.12 118.404C121.12 123.164 125.04 127.084 129.8 127.084C134.56 127.084 138.48 123.164 138.48 118.404C138.48 113.644 134.56 109.724 129.8 109.724C128.12 109.724 126.72 110.144 125.32 110.984L117.34 103.004V81.164H129.8V99.0841C129.8 100.204 130.78 101.184 131.9 101.184H142.68C143.66 104.964 147.02 107.764 151.08 107.764C155.84 107.764 159.76 103.844 159.76 99.0841C159.76 94.3241 155.84 90.544 151.08 90.544ZM46.92 103.564C44.54 103.564 42.44 101.604 42.44 99.0841C42.44 96.7041 44.4 94.604 46.92 94.604C49.3 94.604 51.4 96.5641 51.4 99.0841C51.4 101.604 49.3 103.564 46.92 103.564ZM68.06 122.744C65.68 122.744 63.58 120.784 63.58 118.264C63.58 115.884 65.54 113.784 68.06 113.784C70.44 113.784 72.54 115.744 72.54 118.264C72.4 120.784 70.44 122.744 68.06 122.744ZM103.48 123.304C103.48 125.684 101.52 127.784 99 127.784C96.62 127.784 94.52 125.824 94.52 123.304C94.52 120.924 96.48 118.824 99 118.824C101.38 118.824 103.48 120.784 103.48 123.304ZM134.42 118.264C134.42 120.644 132.46 122.744 129.94 122.744C127.56 122.744 125.46 120.784 125.46 118.264C125.46 115.884 127.42 113.784 129.94 113.784C132.46 113.924 134.42 115.884 134.42 118.264ZM40.2 61.7041C40.2 53.7241 45.66 47.4241 53.64 46.4441C54.76 46.3041 55.6 45.3241 55.46 44.2041C55.18 40.5641 56.44 37.2041 59.1 34.6841C61.2 32.7241 64 31.6041 66.8 31.6041C67.5 31.6041 68.2 31.6041 68.9 31.7441C70.02 31.8841 71 31.3241 71.28 30.2041C72.68 25.0241 76.88 20.5441 82.76 18.0241C89.34 15.2241 96.9 15.3641 102.5 18.3041C103.34 18.7241 104.32 18.5841 105.02 17.8841C110.62 12.2841 118.74 10.4641 126.3 13.2641C133.72 16.0641 138.76 22.6441 139.32 30.6241C139.32 31.4641 140.02 32.3041 140.86 32.4441C151.36 35.3841 157.8 43.7841 157.8 54.5641C157.8 66.4641 147.3 76.9641 135.26 76.9641H55.6C47.2 76.9641 40.2 69.9641 40.2 61.7041ZM151.08 103.564C148.7 103.564 146.6 101.604 146.6 99.0841C146.6 96.7041 148.56 94.604 151.08 94.604C153.46 94.604 155.56 96.5641 155.56 99.0841C155.56 101.604 153.6 103.564 151.08 103.564Z" fill="#8B432A"/>
</svg>
