<svg width="166" height="156" viewBox="0 0 166 156" fill="none"
    xmlns="http://www.w3.org/2000/svg">
    <path d="M7.5 77C7.5 43.3106 34.8106 16 68.5 16C102.189 16 129.5 43.3106 129.5 77C129.5 110.689 102.189 138 68.5 138C34.8106 138 7.5 110.689 7.5 77Z" fill="#FFEBBB"/>
    <path d="M31.625 49.5625H66.625V53.9375H31.625V49.5625ZM31.625 102.062H66.625V106.438H31.625V102.062ZM40.375 75.8125H44.75V80.1875H40.375V75.8125ZM31.625 75.8125H36V80.1875H31.625V75.8125ZM92.875 49.5625H97.25V53.9375H92.875V49.5625ZM84.125 49.5625H88.5V53.9375H84.125V49.5625ZM92.875 102.062H97.25V106.438H92.875V102.062ZM84.125 102.062H88.5V106.438H84.125V102.062Z" fill="#AD5B3A"/>
    <path d="M22.8751 99.175V109.325C22.7743 111.931 23.7095 114.471 25.4763 116.39C27.2431 118.308 29.6976 119.449 32.3032 119.562H95.0626V123.938C95.0626 124.518 95.293 125.074 95.7033 125.484C96.1135 125.895 96.6699 126.125 97.2501 126.125H114.488C115.068 126.125 115.624 125.895 116.034 125.484C116.445 125.074 116.675 124.518 116.675 123.938V119.562C116.683 118.299 117.062 117.065 117.767 116.016C118.471 114.967 119.469 114.148 120.636 113.663C121.803 113.178 123.087 113.047 124.328 113.287C125.568 113.527 126.711 114.127 127.613 115.012L130.697 118.097C131.107 118.504 131.661 118.733 132.239 118.733C132.817 118.733 133.371 118.504 133.781 118.097L145.966 105.912C146.373 105.503 146.602 104.948 146.602 104.37C146.602 103.792 146.373 103.238 145.966 102.828L142.903 99.875C142.018 98.9734 141.417 97.8308 141.177 96.59C140.937 95.3493 141.068 94.0653 141.554 92.8984C142.039 91.7316 142.857 90.7337 143.907 90.0292C144.956 89.3248 146.189 88.945 147.453 88.9375H151.828C152.408 88.9375 152.965 88.707 153.375 88.2968C153.785 87.8866 154.016 87.3302 154.016 86.75V69.3812C154.016 68.8011 153.785 68.2447 153.375 67.8345C152.965 67.4242 152.408 67.1937 151.828 67.1937H147.563C146.299 67.1862 145.065 66.8065 144.016 66.102C142.967 65.3976 142.148 64.3996 141.663 63.2328C141.178 62.066 141.047 60.782 141.287 59.5412C141.527 58.3005 142.127 57.1579 143.013 56.2562L146.097 53.1719C146.504 52.762 146.733 52.2076 146.733 51.6297C146.733 51.0518 146.504 50.4974 146.097 50.0875L133.913 37.9031C133.503 37.4957 132.948 37.267 132.37 37.267C131.792 37.267 131.238 37.4957 130.828 37.9031L127.744 40.9875C126.842 41.873 125.7 42.4733 124.459 42.7133C123.218 42.9533 121.934 42.8224 120.767 42.337C119.6 41.8516 118.602 41.0332 117.898 39.984C117.194 38.9348 116.814 37.7012 116.806 36.4375V32.0625C116.806 31.4823 116.576 30.9259 116.166 30.5157C115.755 30.1055 115.199 29.875 114.619 29.875H97.2501C96.6699 29.875 96.1135 30.1055 95.7033 30.5157C95.293 30.9259 95.0626 31.4823 95.0626 32.0625V36.4375H32.3032C29.6976 36.5512 27.2431 37.692 25.4763 39.6105C23.7095 41.5289 22.7743 44.0689 22.8751 46.675V56.825C22.8633 58.3536 23.1862 59.8664 23.821 61.257C24.4559 62.6476 25.3874 63.8825 26.5501 64.875C25.3874 65.8675 24.4559 67.1024 23.821 68.493C23.1862 69.8836 22.8633 71.3964 22.8751 72.925V83.075C22.8633 84.6036 23.1862 86.1164 23.821 87.507C24.4559 88.8976 25.3874 90.1325 26.5501 91.125C25.3874 92.1175 24.4559 93.3524 23.821 94.743C23.1862 96.1336 22.8633 97.6463 22.8751 99.175ZM99.4376 34.25H112.3V36.4375C112.297 38.573 112.927 40.6614 114.112 42.4381C115.297 44.2147 116.982 45.5997 118.955 46.4174C120.928 47.235 123.099 47.4486 125.193 47.0311C127.287 46.6135 129.211 45.5836 130.719 44.0719L132.25 42.5406L141.35 51.6406L139.819 53.15C138.311 54.6689 137.288 56.6014 136.88 58.7023C136.472 60.8032 136.697 62.978 137.527 64.9509C138.356 66.9238 139.753 68.606 141.539 69.7842C143.326 70.9624 145.422 71.5835 147.563 71.5687H149.75V84.4312H147.563C145.427 84.4339 143.341 85.0692 141.566 86.2567C139.791 87.4443 138.408 89.131 137.592 91.104C136.775 93.0769 136.561 95.2475 136.977 97.342C137.393 99.4364 138.42 101.361 139.928 102.872L141.459 104.381L132.25 113.481L130.719 111.95C129.212 110.44 127.291 109.41 125.198 108.992C123.106 108.574 120.937 108.785 118.965 109.6C116.993 110.415 115.308 111.797 114.121 113.57C112.935 115.343 112.301 117.429 112.3 119.562V121.75H99.4376V119.037C101.398 118.291 103.08 116.957 104.254 115.219C105.429 113.481 106.038 111.422 106 109.325V108.494C119.781 107.094 132.25 92.9625 132.25 78C132.25 63.0375 119.781 48.9062 106 47.5062V46.675C106.038 44.5776 105.429 42.5194 104.254 40.7812C103.08 39.043 101.398 37.7094 99.4376 36.9625V34.25ZM102.325 64.875C103.488 63.8825 104.419 62.6476 105.054 61.257C105.689 59.8664 106.012 58.3536 106 56.825V51.9031C117.353 53.325 127.875 65.5531 127.875 78C127.875 90.4469 117.353 102.675 106 104.097V99.175C106.012 97.6463 105.689 96.1336 105.054 94.743C104.419 93.3524 103.488 92.1175 102.325 91.125C103.488 90.1325 104.419 88.8976 105.054 87.507C105.689 86.1164 106.012 84.6036 106 83.075V72.925C106.012 71.3964 105.689 69.8836 105.054 68.493C104.419 67.1024 103.488 65.8675 102.325 64.875ZM27.2501 46.675C27.1533 45.2299 27.6292 43.8048 28.5748 42.7078C29.5203 41.6108 30.8596 40.93 32.3032 40.8125H96.5719C98.0155 40.93 99.3548 41.6108 100.3 42.7078C101.246 43.8048 101.722 45.2299 101.625 46.675V56.825C101.722 58.2701 101.246 59.6952 100.3 60.7922C99.3548 61.8892 98.0155 62.57 96.5719 62.6875H32.3032C30.8596 62.57 29.5203 61.8892 28.5748 60.7922C27.6292 59.6952 27.1533 58.2701 27.2501 56.825V46.675ZM27.2501 72.925C27.1533 71.4799 27.6292 70.0548 28.5748 68.9578C29.5203 67.8608 30.8596 67.18 32.3032 67.0625H96.5719C98.0155 67.18 99.3548 67.8608 100.3 68.9578C101.246 70.0548 101.722 71.4799 101.625 72.925V83.075C101.722 84.5201 101.246 85.9452 100.3 87.0422C99.3548 88.1392 98.0155 88.82 96.5719 88.9375H32.3032C30.8596 88.82 29.5203 88.1392 28.5748 87.0422C27.6292 85.9452 27.1533 84.5201 27.2501 83.075V72.925ZM27.2501 99.175C27.1533 97.7299 27.6292 96.3048 28.5748 95.2078C29.5203 94.1108 30.8596 93.43 32.3032 93.3125H96.5719C98.0155 93.43 99.3548 94.1108 100.3 95.2078C101.246 96.3048 101.722 97.7299 101.625 99.175V109.325C101.722 110.77 101.246 112.195 100.3 113.292C99.3548 114.389 98.0155 115.07 96.5719 115.188H32.3032C30.8596 115.07 29.5203 114.389 28.5748 113.292C27.6292 112.195 27.1533 110.77 27.2501 109.325V99.175Z" fill="#AD5B3A"/>
    <path d="M62.25 75.8125H97.25V80.1875H62.25V75.8125Z" fill="#AD5B3A"/>
</svg>
