<svg width="164" height="158" viewBox="0 0 164 158" fill="none"
    xmlns="http://www.w3.org/2000/svg">
    <path d="M7 88.5C7 54.8106 34.3106 27.5 68 27.5C101.689 27.5 129 54.8106 129 88.5C129 122.189 101.689 149.5 68 149.5C34.3106 149.5 7 122.189 7 88.5Z" fill="#FFEBBB"/>
    <path fill-rule="evenodd" clip-rule="evenodd" d="M79.6434 103.736H94.9896C95.5697 103.736 96.1261 103.967 96.5364 104.377C96.9466 104.787 97.1771 105.343 97.1771 105.924V131.97C97.1771 132.551 96.9466 133.107 96.5364 133.517C96.1261 133.927 95.5697 134.158 94.9896 134.158H79.6434C79.0633 134.158 78.5069 133.927 78.0966 133.517C77.6864 133.107 77.4559 132.551 77.4559 131.97V105.924C77.4559 105.343 77.6864 104.787 78.0966 104.377C78.5069 103.967 79.0633 103.736 79.6434 103.736ZM61.1787 55.4511C64.9686 55.4511 68.5241 56.5129 71.0796 58.2C70.5877 51.2771 69.442 45.1158 67.8479 40.3333C65.9215 34.5542 63.5462 30.9799 61.1785 30.9799C58.8108 30.9799 56.4354 34.5545 54.5093 40.3333C52.9152 45.116 51.7695 51.2771 51.2776 58.2C53.8506 56.5009 57.3514 55.4511 61.1787 55.4511ZM63.366 59.9634V81.1636C63.366 81.7437 63.1355 82.3001 62.7253 82.7104C62.315 83.1206 61.7586 83.3511 61.1785 83.3511C60.5983 83.3511 60.0419 83.1206 59.6317 82.7104C59.2214 82.3001 58.991 81.7437 58.991 81.1636V59.9708C56.9066 60.2511 55.0622 60.9248 53.6458 61.8674C52.0178 62.9507 51.0093 64.3679 51.0093 65.8617C51.0093 66.4419 50.7789 66.9983 50.3686 67.4085C49.9584 67.8188 49.402 68.0492 48.8218 68.0492C48.2417 68.0492 47.6853 67.8188 47.275 67.4085C46.8648 66.9983 46.6343 66.4419 46.6343 65.8617C46.6343 64.3685 45.6267 62.9515 43.9979 61.8674C39.9067 59.145 33.024 59.145 28.9331 61.8674C27.3045 62.9513 26.2969 64.3682 26.2969 65.8615H21.9219C21.9219 44.9684 38.274 27.8036 58.991 26.6656V25.0052C58.991 24.4251 59.2214 23.8687 59.6317 23.4585C60.0419 23.0482 60.5983 22.8177 61.1785 22.8177C61.7586 22.8177 62.315 23.0482 62.7253 23.4585C63.1355 23.8687 63.366 24.4251 63.366 25.0052V26.6656C84.083 27.8036 100.435 44.9681 100.435 65.8615H96.0601C96.0601 64.3682 95.0525 62.9513 93.4236 61.8671C89.3324 59.1445 82.4497 59.1447 78.3586 61.8671C76.7297 62.951 75.7221 64.3682 75.7221 65.8615C75.7221 66.4416 75.4916 66.998 75.0814 67.4083C74.6711 67.8185 74.1147 68.049 73.5346 68.049C72.9544 68.049 72.398 67.8185 71.9878 67.4083C71.5775 66.998 71.3471 66.4416 71.3471 65.8615C71.3454 64.3198 70.3436 62.9537 68.7109 61.8671C67.2898 60.9213 65.4455 60.2451 63.366 59.9634ZM46.8722 58.5503C41.5528 54.6801 32.9649 54.4504 27.2378 57.7827C30.315 44.8054 40.6346 34.6467 53.6778 31.7884C49.4291 38.3501 47.4708 49.4476 46.8722 58.5503ZM68.6789 31.7884C81.7224 34.6467 92.0416 44.8051 95.1189 57.7827C89.3937 54.4517 80.8014 54.679 75.4845 58.5503C74.8859 49.4473 72.9278 38.3501 68.6789 31.7884ZM80.7372 90.4572L143.936 53.9694L140.18 60.4747C140.038 60.7227 139.945 60.9964 139.908 61.28C139.872 61.5637 139.891 61.8518 139.966 62.128C140.04 62.4041 140.169 62.6628 140.343 62.8894C140.518 63.1159 140.735 63.3059 140.983 63.4484C141.231 63.5909 141.505 63.6832 141.789 63.7199C142.072 63.7567 142.36 63.7372 142.637 63.6626C142.913 63.588 143.171 63.4597 143.398 63.2851C143.625 63.1105 143.815 62.893 143.957 62.645L151.706 49.2231C152.682 47.6519 151.586 45.7802 149.764 45.8324H134.246C133.675 45.8415 133.129 46.0751 132.728 46.4827C132.327 46.8904 132.102 47.4395 132.102 48.0115C132.102 48.5835 132.327 49.1325 132.728 49.5402C133.129 49.9479 133.675 50.1814 134.246 50.1905H141.752L78.5497 86.6802C78.0489 86.9703 77.6838 87.4474 77.5348 88.0067C77.3858 88.5659 77.465 89.1615 77.7551 89.6623C77.8987 89.9103 78.0897 90.1276 78.3173 90.3018C78.5449 90.476 78.8046 90.6036 79.0815 90.6774C79.3584 90.7513 79.6472 90.7698 79.9312 90.732C80.2153 90.6942 80.4892 90.6008 80.7372 90.4572ZM56.6028 87.9322L55.2911 80.8015L55.2897 80.8018C55.198 80.3018 54.9344 79.8496 54.5445 79.5235C54.1547 79.1973 53.663 79.0177 53.1547 79.0157L43.912 78.9536C43.3854 78.9298 42.868 79.0975 42.4556 79.4257C42.0431 79.7539 41.7635 80.2204 41.6684 80.7389L40.3447 87.9314C38.9476 88.5411 37.6235 89.3057 36.3971 90.2111L29.5565 87.7857L29.5552 87.7895C29.0778 87.6213 28.5569 87.6245 28.0816 87.7984C27.6063 87.9723 27.2064 88.3062 26.9504 88.7427L22.2853 96.6995C21.9942 97.1433 21.8749 97.6779 21.9496 98.2034C22.0242 98.7288 22.2879 99.209 22.6911 99.5542L28.2511 104.29C28.0854 105.813 28.0841 107.35 28.247 108.873L22.7452 113.56C22.3605 113.889 22.1024 114.342 22.015 114.841C21.9277 115.34 22.0165 115.853 22.2664 116.294L26.8271 124.316C27.0665 124.79 27.47 125.16 27.9624 125.357C28.4547 125.555 29.0021 125.567 29.5024 125.39L36.352 122.955C37.5962 123.88 38.9423 124.659 40.3639 125.278L41.6684 132.332L41.6698 132.331C41.7616 132.831 42.0252 133.283 42.4151 133.61C42.8049 133.936 43.2965 134.115 43.8048 134.117L53.0478 134.179C53.5744 134.203 54.0918 134.035 54.5042 133.707C54.9167 133.379 55.1963 132.912 55.2914 132.394L56.602 125.269C58.0202 124.651 59.3629 123.872 60.604 122.948L67.3833 125.359L67.3847 125.355C67.862 125.523 68.383 125.52 68.8582 125.346C69.3335 125.172 69.7334 124.838 69.9895 124.402L74.6546 116.445C74.9456 116.001 75.0649 115.466 74.9902 114.941C74.9155 114.416 74.6519 113.935 74.2488 113.59L68.6996 108.863C68.8629 107.339 68.861 105.802 68.6942 104.279L74.1944 99.5851C74.5791 99.2556 74.8372 98.8027 74.9246 98.3038C75.0119 97.8049 74.9231 97.2912 74.6732 96.8507L70.1125 88.8277C69.8731 88.3544 69.4695 87.9843 68.9772 87.7867C68.4849 87.5891 67.9375 87.5775 67.4372 87.754L60.5425 90.2059C59.3181 89.3034 57.9967 88.5408 56.6028 87.9322ZM56.448 92.7354C55.6454 92.2712 54.8037 91.8783 53.9324 91.5613C53.5744 91.4313 53.2567 91.2099 53.0108 90.9191C52.765 90.6282 52.5996 90.2781 52.531 89.9035L51.3276 83.3615L45.6267 83.3232L44.4288 89.8329C44.3706 90.2216 44.2084 90.5873 43.9595 90.8914C43.7106 91.1955 43.3841 91.4267 43.0146 91.5605C41.3105 92.1787 39.6111 93.1505 38.228 94.3244C37.9368 94.5759 37.5842 94.7458 37.206 94.8171C36.8278 94.8884 36.4376 94.8584 36.0747 94.7302L29.7969 92.5044L26.9148 97.42L31.8914 101.659C32.2154 101.901 32.4661 102.228 32.6154 102.604C32.7647 102.979 32.8068 103.389 32.7371 103.787C32.4025 105.691 32.3984 107.475 32.7309 109.377L32.727 109.378C32.7923 109.751 32.7592 110.135 32.631 110.492C32.5029 110.848 32.2841 111.165 31.9961 111.411L26.9515 115.708L29.7671 120.661L36.0312 118.434C36.3907 118.307 36.777 118.277 37.1517 118.346C37.5265 118.415 37.8767 118.581 38.1676 118.827C39.6096 120.047 41.2566 121.002 43.0321 121.646C43.3901 121.776 43.7078 121.998 43.9536 122.288C44.1995 122.579 44.3649 122.929 44.4334 123.304L45.6297 129.772L51.3323 129.81L52.5173 123.368C52.5756 122.979 52.7377 122.614 52.9866 122.31C53.2356 122.005 53.562 121.774 53.9316 121.64C55.5826 121.041 57.4097 120.016 58.7326 118.866C59.0243 118.602 59.3819 118.422 59.7675 118.345C60.1532 118.267 60.5525 118.296 60.9234 118.427L67.1435 120.639L70.0247 115.724L65.0421 111.48C64.726 111.238 64.482 110.914 64.3365 110.544C64.191 110.173 64.1496 109.77 64.2166 109.377C64.5453 107.471 64.5467 105.69 64.2076 103.778L64.2117 103.777C64.1465 103.404 64.1796 103.021 64.3077 102.664C64.4359 102.308 64.6547 101.991 64.9426 101.744L69.9889 97.4377L67.1725 92.4833L60.9091 94.7108C60.5471 94.8469 60.1554 94.8845 59.774 94.8196C59.3927 94.7547 59.0355 94.5896 58.7389 94.3413C58.0231 93.7408 57.2566 93.2035 56.448 92.7354ZM48.4696 96.0079C54.3007 96.0079 59.0284 100.736 59.0284 106.567C59.0284 112.398 54.3007 117.126 48.4696 117.126C42.6386 117.126 37.9109 112.398 37.9109 106.567C37.9109 100.736 42.6389 96.0079 48.4696 96.0079ZM52.8425 102.194C55.2572 104.609 55.2572 108.525 52.8425 110.94C48.9575 114.825 42.2859 112.06 42.2859 106.567C42.2859 101.074 48.9575 98.3089 52.8425 102.194ZM136.732 74.9945H147.703V129.783H136.732V74.9945ZM132.357 131.97V72.807C132.357 72.2269 132.588 71.6705 132.998 71.2603C133.408 70.85 133.965 70.6195 134.545 70.6195H149.891C150.471 70.6195 151.027 70.85 151.437 71.2603C151.848 71.6705 152.078 72.2269 152.078 72.807V131.97C152.078 132.55 151.848 133.107 151.437 133.517C151.027 133.927 150.471 134.158 149.891 134.158H134.545C133.965 134.158 133.408 133.927 132.998 133.517C132.588 133.107 132.357 132.551 132.357 131.97ZM107.094 86.462H122.44C123.02 86.462 123.577 86.6924 123.987 87.1027C124.397 87.5129 124.628 88.0693 124.628 88.6495V131.97C124.628 132.551 124.397 133.107 123.987 133.517C123.577 133.927 123.02 134.158 122.44 134.158H107.094C106.514 134.158 105.958 133.927 105.547 133.517C105.137 133.107 104.907 132.551 104.907 131.97V88.6495C104.907 88.0693 105.137 87.5129 105.547 87.1027C105.958 86.6924 106.514 86.462 107.094 86.462ZM120.253 90.837V129.783H109.282V90.837H120.253ZM92.8021 108.111H81.8309V129.783H92.8021V108.111Z" fill="#AD5B3A"/>
</svg>
