<svg width="1440" height="471" viewBox="0 0 1440 471" fill="none"
    xmlns="http://www.w3.org/2000/svg">
    <g clip-path="url(#clip0_402_212)">
        <rect width="1440" height="471" fill="#005F68"/>
        <circle cx="135" cy="540" r="217" fill="url(#paint0_linear_402_212)"/>
        <mask id="mask0_402_212" style="mask-type:luminance" maskUnits="userSpaceOnUse" x="0" y="-173" width="1456" height="871">
            <path d="M1455.09 -173H0V697.898H1455.09V-173Z" fill="white"/>
        </mask>
        <g mask="url(#mask0_402_212)">
            <path opacity="0.32" d="M102.284 10.2629H394.481C404.401 10.2629 413.729 14.118 420.745 21.1142L571.283 171.28C578.517 178.497 588.138 182.471 598.368 182.471H701.95C702.238 185.009 704.397 186.983 707.019 186.983C709.839 186.983 712.124 184.704 712.124 181.891C712.124 179.078 709.839 176.799 707.019 176.799C704.397 176.799 702.241 178.773 701.95 181.31H598.368C588.447 181.31 579.12 177.455 572.103 170.459L421.566 20.2927C414.331 13.0759 404.71 9.10166 394.481 9.10166H102.284C92.3634 9.10166 83.0363 5.24648 76.0198 -1.74973L-3.66372 -81.2366L-4.4873 -80.415L75.1963 -0.92818C82.4339 6.28866 92.052 10.2629 102.284 10.2629Z" fill="url(#paint1_linear_402_212)"/>
            <g opacity="0.74">
                <path d="M81.5531 110.991H211.251C221.483 110.991 231.101 107.017 238.336 99.7997L263.276 74.921C270.293 67.9219 279.62 64.0697 289.541 64.0697H360.872C360.872 64.1016 360.866 64.1306 360.866 64.1596C360.866 66.9726 363.151 69.2515 365.971 69.2515C368.791 69.2515 371.075 66.9726 371.075 64.1596C371.075 61.3466 368.791 59.0678 365.971 59.0678C363.584 59.0678 361.588 60.7022 361.029 62.9085H289.541C279.308 62.9085 269.69 66.8827 262.456 74.0995L237.515 98.9781C230.499 105.977 221.172 109.83 211.251 109.83H81.5531C71.6323 109.83 62.3052 105.974 55.2887 98.9781L-3.66275 40.1693L-4.48633 40.9909L54.4681 99.7997C61.7028 107.014 71.3238 110.991 81.5531 110.991Z" fill="url(#paint2_linear_402_212)"/>
                <path d="M-3.66419 -18.5343L-4.4873 -17.7133L123.252 109.711L124.075 108.889L-3.66419 -18.5343Z" fill="url(#paint3_linear_402_212)"/>
            </g>
            <path d="M71.0056 362.079C78.0221 355.08 87.3492 351.228 97.27 351.228H239.339C249.571 351.228 259.189 347.254 266.424 340.037L283.504 322.999H474.394C484.626 322.999 494.244 319.025 501.479 311.808L551.939 261.473C558.955 254.474 568.282 250.622 578.203 250.622H776.709C776.997 253.159 779.157 255.133 781.779 255.133C784.599 255.133 786.883 252.854 786.883 250.041C786.883 247.228 784.599 244.95 781.779 244.95C779.157 244.95 777 246.924 776.709 249.461H578.203C567.971 249.461 558.353 253.435 551.118 260.652L500.658 310.987C493.642 317.986 484.315 321.838 474.394 321.838H284.668L348.704 257.961H478.07C488.302 257.961 497.92 253.987 505.155 246.77L522.691 229.276H630.173C630.461 231.813 632.62 233.788 635.242 233.788C638.062 233.788 640.347 231.509 640.347 228.696C640.347 225.883 638.062 223.604 635.242 223.604C632.62 223.604 630.464 225.578 630.173 228.115H523.206L522.709 227.619L522.211 228.115H239.828C229.907 228.115 220.58 224.26 213.564 217.264L152.045 155.9H382.441C392.362 155.9 401.689 159.755 408.706 166.752L416.7 174.726C423.935 181.943 433.556 185.917 443.785 185.917H540.691C540.685 186.019 540.676 186.12 540.676 186.225C540.676 189.038 542.961 191.317 545.781 191.317C548.601 191.317 550.885 189.038 550.885 186.225C550.885 183.412 548.601 181.133 545.781 181.133C543.473 181.133 541.526 182.66 540.895 184.756H443.785C433.864 184.756 424.537 180.901 417.521 173.905L409.526 165.93C402.292 158.713 392.67 154.739 382.441 154.739H-4.07406V155.9H150.401L212.74 218.085C219.975 225.302 229.596 229.276 239.825 229.276H521.044L504.331 245.948C497.318 252.947 487.988 256.8 478.067 256.8H349.335L348.776 256.242L348.218 256.8H194.354C184.433 256.8 175.106 252.944 168.089 245.948L124.655 202.615C117.42 195.398 107.799 191.424 97.5697 191.424H-4.07406V192.585H97.5668C107.488 192.585 116.815 196.441 123.831 203.437L167.268 246.767C174.503 253.984 184.124 257.958 194.354 257.958H347.056L312.3 292.628V291.705H-4.07406V292.866H312.061L265.6 339.213C258.584 346.212 249.257 350.064 239.336 350.064H97.2671C87.0349 350.064 77.4167 354.038 70.182 361.255L-4.4873 435.743L-3.66372 436.564L71.0056 362.079Z" fill="url(#paint4_linear_402_212)"/>
            <path opacity="0.44" d="M139.29 445.851H457.338C457.626 448.388 459.785 450.362 462.407 450.362C465.227 450.362 467.512 448.083 467.512 445.27C467.512 442.457 465.227 440.178 462.407 440.178C459.785 440.178 457.629 442.153 457.338 444.69H139.29C129.058 444.69 119.44 448.664 112.205 455.881L-9.27148 577.057L-8.4479 577.879L113.029 456.702C120.042 449.703 129.369 445.851 139.29 445.851Z" fill="url(#paint5_linear_402_212)"/>
            <path opacity="0.47" d="M434.571 109.83H296.143C295.855 107.292 293.695 105.318 291.073 105.318C288.253 105.318 285.969 107.597 285.969 110.41C285.969 113.223 288.253 115.502 291.073 115.502C293.695 115.502 295.852 113.528 296.143 110.991H434.571C434.859 113.528 437.019 115.502 439.641 115.502C442.461 115.502 444.745 113.223 444.745 110.41C444.745 107.597 442.461 105.318 439.641 105.318C437.019 105.318 434.859 107.29 434.571 109.83Z" fill="url(#paint6_linear_402_212)"/>
            <path opacity="0.44" d="M509.139 38.1113C510.338 38.1113 511.441 37.6962 512.311 37.0053L594.753 119.244C594.061 120.112 593.644 121.212 593.644 122.408C593.644 125.221 595.929 127.5 598.749 127.5C601.569 127.5 603.853 125.221 603.853 122.408C603.853 119.595 601.569 117.317 598.749 117.317C597.55 117.317 596.447 117.732 595.577 118.423L513.134 36.1837C513.827 35.3157 514.243 34.2155 514.243 33.0195C514.243 30.2065 511.959 27.9276 509.139 27.9276C506.319 27.9276 504.034 30.2065 504.034 33.0195C504.034 35.8325 506.319 38.1113 509.139 38.1113Z" fill="url(#paint7_linear_402_212)"/>
            <path d="M724.829 303.207C722.207 303.207 720.051 305.181 719.76 307.718H592.466C582.234 307.718 572.615 311.692 565.381 318.909L503.665 380.473C496.648 387.472 487.321 391.324 477.4 391.324H359.363C359.075 388.787 356.916 386.813 354.294 386.813C351.474 386.813 349.189 389.092 349.189 391.905C349.189 394.718 351.474 396.997 354.294 396.997C356.916 396.997 359.072 395.023 359.363 392.485H477.4C487.632 392.485 497.251 388.511 504.485 381.294L566.201 319.731C573.218 312.731 582.545 308.879 592.466 308.879H719.76C720.048 311.416 722.207 313.39 724.829 313.39C727.649 313.39 729.934 311.112 729.934 308.299C729.934 305.486 727.649 303.207 724.829 303.207Z" fill="url(#paint8_linear_402_212)"/>
            <path opacity="0.44" d="M689.471 384.583C686.974 384.583 684.899 386.372 684.457 388.735H626.044C615.812 388.735 606.194 392.709 598.959 399.926L533.759 464.964C526.743 471.963 517.416 475.816 507.495 475.816H300.543C300.127 473.424 298.038 471.6 295.52 471.6C292.7 471.6 290.416 473.879 290.416 476.692C290.416 479.505 292.7 481.784 295.52 481.784C298.244 481.784 300.462 479.656 300.61 476.977H507.495C517.727 476.977 527.345 473.003 534.58 465.786L599.78 400.747C606.796 393.748 616.123 389.896 626.044 389.896H684.375C684.492 392.604 686.724 394.767 689.468 394.767C692.288 394.767 694.573 392.488 694.573 389.675C694.573 386.862 692.291 384.583 689.471 384.583Z" fill="url(#paint9_linear_402_212)"/>
            <path opacity="0.59" d="M439.009 349.965H341.026C330.794 349.965 321.176 353.939 313.941 361.156L274.072 400.927C267.055 407.926 257.728 411.779 247.807 411.779H105.637C95.4044 411.779 85.7862 415.753 78.5515 422.97L41.8018 459.632C34.7854 466.631 25.4583 470.483 15.5375 470.483H-4.07422V471.644H15.5375C25.7697 471.644 35.3878 467.67 42.6225 460.453L79.3722 423.794C86.3887 416.795 95.7158 412.943 105.637 412.943H247.807C258.04 412.943 267.658 408.969 274.893 401.752L314.762 361.981C321.778 354.982 331.105 351.129 341.026 351.129H439.009C439.297 353.667 441.457 355.641 444.079 355.641C446.899 355.641 449.183 353.362 449.183 350.549C449.183 347.736 446.899 345.457 444.079 345.457C441.457 345.454 439.3 347.425 439.009 349.965Z" fill="url(#paint10_linear_402_212)"/>
        </g>
        <path opacity="0.32" d="M1350.81 519.907H1058.61C1048.69 519.907 1039.36 516.052 1032.35 509.055L881.81 358.889C874.575 351.672 864.954 347.698 854.725 347.698H751.143C750.855 345.161 748.696 343.187 746.074 343.187C743.254 343.187 740.969 345.466 740.969 348.279C740.969 351.092 743.254 353.371 746.074 353.371C748.696 353.371 750.852 351.397 751.143 348.859H854.725C864.646 348.859 873.973 352.715 880.989 359.711L1031.53 509.877C1038.76 517.094 1048.38 521.068 1058.61 521.068H1350.81C1360.73 521.068 1370.06 524.923 1377.07 531.919L1456.76 611.406L1457.58 610.585L1377.9 531.098C1370.66 523.881 1361.04 519.907 1350.81 519.907Z" fill="url(#paint11_linear_402_212)"/>
        <g opacity="0.74">
            <path d="M1371.54 419.178H1241.84C1231.61 419.178 1221.99 423.153 1214.76 430.369L1189.82 455.248C1182.8 462.247 1173.47 466.1 1163.55 466.1H1092.22C1092.22 466.068 1092.23 466.039 1092.23 466.01C1092.23 463.197 1089.94 460.918 1087.12 460.918C1084.3 460.918 1082.02 463.197 1082.02 466.01C1082.02 468.823 1084.3 471.101 1087.12 471.101C1089.51 471.101 1091.51 469.467 1092.06 467.261H1163.55C1173.79 467.261 1183.4 463.287 1190.64 456.07L1215.58 431.191C1222.59 424.192 1231.92 420.34 1241.84 420.34H1371.54C1381.46 420.34 1390.79 424.195 1397.8 431.191L1456.76 490L1457.58 489.178L1398.63 430.369C1391.39 423.153 1381.77 419.178 1371.54 419.178Z" fill="url(#paint12_linear_402_212)"/>
            <path d="M1329.83 420.462L1329 421.283L1456.74 548.707L1457.56 547.886L1329.83 420.462Z" fill="url(#paint13_linear_402_212)"/>
        </g>
        <path d="M1382.09 168.089C1375.07 175.089 1365.74 178.941 1355.82 178.941H1213.75C1203.52 178.941 1193.9 182.915 1186.67 190.132L1169.59 207.17H978.698C968.466 207.17 958.848 211.144 951.613 218.361L901.154 268.696C894.137 275.695 884.81 279.547 874.89 279.547H676.383C676.095 277.01 673.936 275.036 671.314 275.036C668.494 275.036 666.209 277.315 666.209 280.128C666.209 282.941 668.494 285.219 671.314 285.219C673.936 285.219 676.092 283.245 676.383 280.708H874.89C885.122 280.708 894.74 276.734 901.975 269.517L952.434 219.182C959.451 212.183 968.778 208.331 978.698 208.331H1168.42L1104.39 272.208H975.023C964.791 272.208 955.173 276.182 947.938 283.399L930.401 300.893H822.92C822.632 298.355 820.472 296.381 817.85 296.381C815.03 296.381 812.746 298.66 812.746 301.473C812.746 304.286 815.03 306.565 817.85 306.565C820.472 306.565 822.629 304.591 822.92 302.054H929.886L930.384 302.55L930.881 302.054H1213.26C1223.19 302.054 1232.51 305.909 1239.53 312.905L1301.05 374.269H1070.65C1060.73 374.269 1051.4 370.414 1044.39 363.417L1036.39 355.443C1029.16 348.226 1019.54 344.252 1009.31 344.252H912.402C912.408 344.15 912.416 344.049 912.416 343.944C912.416 341.131 910.132 338.852 907.312 338.852C904.492 338.852 902.207 341.131 902.207 343.944C902.207 346.757 904.492 349.036 907.312 349.036C909.62 349.036 911.567 347.509 912.198 345.413H1009.31C1019.23 345.413 1028.56 349.268 1035.57 356.264L1043.57 364.239C1050.8 371.456 1060.42 375.43 1070.65 375.43H1457.17V374.269H1302.69L1240.35 312.084C1233.12 304.867 1223.5 300.893 1213.27 300.893H932.048L948.762 284.221C955.775 277.222 965.105 273.369 975.026 273.369H1103.76L1104.32 273.927L1104.88 273.369H1258.74C1268.66 273.369 1277.99 277.225 1285.01 284.221L1328.44 327.551C1335.68 334.768 1345.3 338.742 1355.53 338.742H1457.17V337.581H1355.53C1345.61 337.581 1336.28 333.726 1329.26 326.729L1285.82 283.399C1278.59 276.182 1268.97 272.208 1258.74 272.208H1106.04L1140.79 237.538V238.461H1457.17V237.3H1141.03L1187.49 190.953C1194.51 183.954 1203.84 180.102 1213.76 180.102H1355.83C1366.06 180.102 1375.68 176.128 1382.91 168.911L1457.58 94.426L1456.76 93.6045L1382.09 168.089Z" fill="url(#paint14_linear_402_212)"/>
        <path opacity="0.44" d="M1313.8 84.3182H995.755C995.467 81.7809 993.308 79.8069 990.686 79.8069C987.866 79.8069 985.581 82.0857 985.581 84.8987C985.581 87.7117 987.866 89.9906 990.686 89.9906C993.308 89.9906 995.464 88.0166 995.755 85.4793H1313.8C1324.03 85.4793 1333.65 81.5052 1340.89 74.2883L1462.36 -46.8884L1461.54 -47.71L1340.06 73.4668C1333.05 80.4659 1323.72 84.3182 1313.8 84.3182Z" fill="url(#paint15_linear_402_212)"/>
        <path opacity="0.47" d="M1018.52 420.339H1156.95C1157.24 422.877 1159.4 424.851 1162.02 424.851C1164.84 424.851 1167.12 422.572 1167.12 419.759C1167.12 416.946 1164.84 414.667 1162.02 414.667C1159.4 414.667 1157.24 416.641 1156.95 419.178H1018.52C1018.23 416.641 1016.07 414.667 1013.45 414.667C1010.63 414.667 1008.35 416.946 1008.35 419.759C1008.35 422.572 1010.63 424.851 1013.45 424.851C1016.07 424.851 1018.23 422.88 1018.52 420.339Z" fill="url(#paint16_linear_402_212)"/>
        <path opacity="0.44" d="M943.954 492.058C942.755 492.058 941.652 492.473 940.782 493.164L858.339 410.925C859.032 410.057 859.448 408.957 859.448 407.761C859.448 404.948 857.164 402.669 854.344 402.669C851.524 402.669 849.239 404.948 849.239 407.761C849.239 410.574 851.524 412.853 854.344 412.853C855.543 412.853 856.646 412.438 857.516 411.747L939.958 493.986C939.266 494.854 938.849 495.954 938.849 497.15C938.849 499.963 941.134 502.242 943.954 502.242C946.774 502.242 949.058 499.963 949.058 497.15C949.058 494.337 946.774 492.058 943.954 492.058Z" fill="url(#paint17_linear_402_212)"/>
        <path d="M728.263 226.962C730.885 226.962 733.042 224.988 733.333 222.451H860.627C870.859 222.451 880.477 218.477 887.712 211.26L949.428 149.696C956.444 142.697 965.772 138.845 975.692 138.845H1093.73C1094.02 141.382 1096.18 143.356 1098.8 143.356C1101.62 143.356 1103.9 141.077 1103.9 138.264C1103.9 135.451 1101.62 133.172 1098.8 133.172C1096.18 133.172 1094.02 135.146 1093.73 137.684H975.692C965.46 137.684 955.842 141.658 948.607 148.875L886.891 210.438C879.875 217.438 870.548 221.29 860.627 221.29H733.333C733.045 218.753 730.885 216.779 728.263 216.779C725.443 216.779 723.159 219.057 723.159 221.87C723.159 224.683 725.443 226.962 728.263 226.962Z" fill="url(#paint18_linear_402_212)"/>
        <path opacity="0.44" d="M763.622 145.586C766.119 145.586 768.193 143.798 768.636 141.435H827.049C837.281 141.435 846.899 137.46 854.134 130.243L919.333 65.2048C926.35 58.2057 935.677 54.3534 945.598 54.3534H1152.55C1152.97 56.7455 1155.06 58.5686 1157.57 58.5686C1160.39 58.5686 1162.68 56.2897 1162.68 53.4767C1162.68 50.6637 1160.39 48.3849 1157.57 48.3849C1154.85 48.3849 1152.63 50.5128 1152.48 53.1922H945.598C935.366 53.1922 925.748 57.1664 918.513 64.3833L853.313 129.422C846.297 136.421 836.97 140.273 827.049 140.273H768.717C768.601 137.565 766.369 135.402 763.624 135.402C760.805 135.402 758.52 137.681 758.52 140.494C758.52 143.307 760.802 145.586 763.622 145.586Z" fill="url(#paint19_linear_402_212)"/>
        <path opacity="0.59" d="M1014.08 180.204H1112.07C1122.3 180.204 1131.92 176.23 1139.15 169.013L1179.02 129.242C1186.04 122.243 1195.36 118.391 1205.29 118.391H1347.46C1357.69 118.391 1367.31 114.417 1374.54 107.2L1411.29 70.5407C1418.31 63.5415 1427.63 59.6893 1437.56 59.6893H1457.17V58.5281H1437.56C1427.32 58.5281 1417.7 62.5023 1410.47 69.7191L1373.72 106.378C1366.7 113.377 1357.38 117.23 1347.46 117.23H1205.29C1195.05 117.23 1185.43 121.204 1178.2 128.421L1138.33 168.192C1131.31 175.191 1121.99 179.043 1112.07 179.043H1014.08C1013.8 176.506 1011.64 174.532 1009.01 174.532C1006.19 174.532 1003.91 176.811 1003.91 179.624C1003.91 182.437 1006.19 184.715 1009.01 184.715C1011.64 184.715 1013.79 182.744 1014.08 180.204Z" fill="url(#paint20_linear_402_212)"/>
        <path opacity="0.19" d="M1215.97 53.4738C1218.26 53.4738 1220.2 51.973 1220.85 49.9032H1274.31C1286.54 49.9032 1298.03 45.1567 1306.67 36.5349L1351.54 -8.22348C1360.18 -16.8425 1364.94 -28.3064 1364.94 -40.496V-74.3217C1364.94 -86.2037 1369.58 -97.3744 1378 -105.773L1444.57 -172.179L1443.74 -173L1377.17 -106.594C1368.53 -97.9724 1363.77 -86.5114 1363.77 -74.3217V-40.496C1363.77 -28.6141 1359.13 -17.4434 1350.71 -9.04502L1305.84 35.7133C1297.42 44.1146 1286.22 48.742 1274.31 48.742H1221.06C1221.07 48.6229 1221.08 48.5039 1221.08 48.382C1221.08 45.569 1218.79 43.2901 1215.97 43.2901C1213.15 43.2901 1210.87 45.569 1210.87 48.382C1210.87 51.195 1213.16 53.4738 1215.97 53.4738Z" fill="url(#paint21_linear_402_212)"/>
    </g>
    <defs>
        <linearGradient id="paint0_linear_402_212" x1="185" y1="261" x2="68" y2="641" gradientUnits="userSpaceOnUse">
            <stop stop-color="#FDEAB7" stop-opacity="0.41"/>
            <stop offset="1" stop-color="#FDEAB7" stop-opacity="0"/>
        </linearGradient>
        <linearGradient id="paint1_linear_402_212" x1="353.818" y1="-81.2366" x2="353.818" y2="186.983" gradientUnits="userSpaceOnUse">
            <stop stop-color="#178B96"/>
            <stop offset="1" stop-color="#005F68"/>
        </linearGradient>
        <linearGradient id="paint2_linear_402_212" x1="183.294" y1="40.1693" x2="183.294" y2="110.991" gradientUnits="userSpaceOnUse">
            <stop stop-color="#178B96"/>
            <stop offset="1" stop-color="#005F68"/>
        </linearGradient>
        <linearGradient id="paint3_linear_402_212" x1="-4.07575" y1="-18.1238" x2="123.348" y2="109.615" gradientUnits="userSpaceOnUse">
            <stop stop-color="#178B96"/>
            <stop offset="1" stop-color="#005F68"/>
        </linearGradient>
        <linearGradient id="paint4_linear_402_212" x1="-322" y1="419.5" x2="771.5" y2="264" gradientUnits="userSpaceOnUse">
            <stop stop-color="#178B96" stop-opacity="0.82"/>
            <stop offset="0.967747" stop-color="#005F68" stop-opacity="0.5"/>
        </linearGradient>
        <linearGradient id="paint5_linear_402_212" x1="229.12" y1="440.178" x2="229.12" y2="577.879" gradientUnits="userSpaceOnUse">
            <stop stop-color="#178B96"/>
            <stop offset="1" stop-color="#005F68"/>
        </linearGradient>
        <linearGradient id="paint6_linear_402_212" x1="365.357" y1="105.318" x2="365.357" y2="115.502" gradientUnits="userSpaceOnUse">
            <stop stop-color="#178B96"/>
            <stop offset="1" stop-color="#005F68"/>
        </linearGradient>
        <linearGradient id="paint7_linear_402_212" x1="554" y1="37.9999" x2="504" y2="72.9999" gradientUnits="userSpaceOnUse">
            <stop stop-color="#178B96"/>
            <stop offset="1" stop-color="#005F68"/>
        </linearGradient>
        <linearGradient id="paint8_linear_402_212" x1="539.562" y1="303.207" x2="539.562" y2="396.997" gradientUnits="userSpaceOnUse">
            <stop stop-color="#178B96"/>
            <stop offset="1" stop-color="#005F68"/>
        </linearGradient>
        <linearGradient id="paint9_linear_402_212" x1="492.494" y1="384.583" x2="492.494" y2="481.784" gradientUnits="userSpaceOnUse">
            <stop stop-color="#178B96"/>
            <stop offset="1" stop-color="#005F68"/>
        </linearGradient>
        <linearGradient id="paint10_linear_402_212" x1="222.554" y1="345.457" x2="222.554" y2="471.644" gradientUnits="userSpaceOnUse">
            <stop stop-color="#178B96"/>
            <stop offset="1" stop-color="#005F68"/>
        </linearGradient>
        <linearGradient id="paint11_linear_402_212" x1="1238.98" y1="492.118" x2="1063.88" y2="189.198" gradientUnits="userSpaceOnUse">
            <stop stop-color="#178B96"/>
            <stop offset="1" stop-color="#005F68"/>
        </linearGradient>
        <linearGradient id="paint12_linear_402_212" x1="1343.02" y1="458.503" x2="1314.37" y2="360.137" gradientUnits="userSpaceOnUse">
            <stop stop-color="#178B96"/>
            <stop offset="1" stop-color="#005F68"/>
        </linearGradient>
        <linearGradient id="paint13_linear_402_212" x1="1400.5" y1="491.466" x2="1399.7" y2="492.265" gradientUnits="userSpaceOnUse">
            <stop stop-color="#178B96"/>
            <stop offset="1" stop-color="#005F68"/>
        </linearGradient>
        <linearGradient id="paint14_linear_402_212" x1="1641" y1="349.5" x2="1332.43" y2="-146.63" gradientUnits="userSpaceOnUse">
            <stop stop-color="#178B96"/>
            <stop offset="0.985305" stop-color="#005F68"/>
        </linearGradient>
        <linearGradient id="paint15_linear_402_212" x1="1316.92" y1="28.7493" x2="1239.74" y2="-144.301" gradientUnits="userSpaceOnUse">
            <stop stop-color="#178B96"/>
            <stop offset="1" stop-color="#005F68"/>
        </linearGradient>
        <linearGradient id="paint16_linear_402_212" x1="1118.69" y1="420.322" x2="1117.18" y2="405.127" gradientUnits="userSpaceOnUse">
            <stop stop-color="#178B96"/>
            <stop offset="1" stop-color="#005F68"/>
        </linearGradient>
        <linearGradient id="paint17_linear_402_212" x1="918.609" y1="457.958" x2="850.092" y2="413.482" gradientUnits="userSpaceOnUse">
            <stop stop-color="#178B96"/>
            <stop offset="1" stop-color="#005F68"/>
        </linearGradient>
        <linearGradient id="paint18_linear_402_212" x1="1032.5" y1="99.9997" x2="879.143" y2="-11.9486" gradientUnits="userSpaceOnUse">
            <stop stop-color="#178B96" stop-opacity="0.37"/>
            <stop offset="1" stop-color="#005F68"/>
        </linearGradient>
        <linearGradient id="paint19_linear_402_212" x1="1039.39" y1="102.356" x2="991.588" y2="-26.3438" gradientUnits="userSpaceOnUse">
            <stop stop-color="#178B96"/>
            <stop offset="1" stop-color="#005F68"/>
        </linearGradient>
        <linearGradient id="paint20_linear_402_212" x1="1318.9" y1="128.595" x2="1249.91" y2="-31.8717" gradientUnits="userSpaceOnUse">
            <stop stop-color="#178B96"/>
            <stop offset="1" stop-color="#005F68"/>
        </linearGradient>
        <linearGradient id="paint21_linear_402_212" x1="1373.28" y1="-47.2488" x2="1215.65" y2="-152.573" gradientUnits="userSpaceOnUse">
            <stop stop-color="#178B96"/>
            <stop offset="1" stop-color="#005F68"/>
        </linearGradient>
        <clipPath id="clip0_402_212">
            <rect width="1440" height="471" fill="white"/>
        </clipPath>
    </defs>
</svg>
