<svg width="20" height="20" viewBox="0 0 20 20" fill="none" xmlns="http://www.w3.org/2000/svg">
<path d="M19.1668 4.27927C18.4926 4.57995 17.7684 4.78311 17.007 4.87493C17.7926 4.40181 18.3804 3.65718 18.6606 2.77997C17.9225 3.22122 17.1146 3.53181 16.2722 3.69824C15.7057 3.08947 14.9554 2.68597 14.1377 2.55038C13.32 2.41479 12.4806 2.5547 11.75 2.94839C11.0194 3.34208 10.4384 3.96752 10.0972 4.72761C9.75594 5.4877 9.67359 6.33991 9.8629 7.15193C8.3673 7.07635 6.90421 6.68511 5.56856 6.0036C4.23292 5.32209 3.05459 4.36554 2.11003 3.19603C1.78706 3.75675 1.60135 4.40686 1.60135 5.09922C1.60099 5.72251 1.7535 6.33624 2.04534 6.88598C2.33718 7.43572 2.75933 7.90446 3.27433 8.25061C2.67706 8.23148 2.09297 8.06905 1.57067 7.77684V7.8256C1.57061 8.69978 1.87106 9.54707 2.42104 10.2237C2.97101 10.9003 3.73664 11.3646 4.58801 11.5377C4.03394 11.6886 3.45305 11.7109 2.88919 11.6027C3.1294 12.3549 3.5973 13.0127 4.22739 13.4839C4.85748 13.9551 5.61822 14.2163 6.4031 14.2308C5.07071 15.2835 3.42523 15.8545 1.73135 15.852C1.4313 15.8521 1.1315 15.8344 0.833496 15.7992C2.55288 16.9118 4.55437 17.5023 6.59849 17.5C13.5181 17.5 17.3009 11.7319 17.3009 6.72936C17.3009 6.56683 17.2968 6.40268 17.2896 6.24016C18.0254 5.70461 18.6605 5.04144 19.1652 4.28171L19.1668 4.27927Z" fill="#0B0D0F"/>
</svg>
