<svg width="20" height="20" viewBox="0 0 20 20" fill="none" xmlns="http://www.w3.org/2000/svg">
<g clip-path="url(#clip0_211_681)">
<path d="M19.5812 5.42527C19.468 5.02154 19.2474 4.65603 18.943 4.36759C18.6299 4.07028 18.2462 3.8576 17.8281 3.74964C16.2633 3.3374 9.99417 3.3374 9.99417 3.3374C7.38063 3.30768 4.76773 3.4384 2.17022 3.72882C1.7521 3.84476 1.36913 4.06219 1.05537 4.36176C0.74708 4.65824 0.523777 5.02385 0.407126 5.42444C0.126908 6.93328 -0.00924109 8.46533 0.00051425 9.99993C-0.0094844 11.5331 0.126331 13.0647 0.407126 14.5754C0.521277 14.9743 0.743748 15.3383 1.05287 15.6323C1.362 15.9263 1.74695 16.1386 2.17022 16.251C3.75584 16.6625 9.99417 16.6625 9.99417 16.6625C12.611 16.6922 15.2273 16.5615 17.8281 16.271C18.2462 16.1631 18.6299 15.9504 18.943 15.6531C19.2473 15.3647 19.4676 14.9991 19.5804 14.5954C19.8679 13.0871 20.0077 11.5545 19.9978 10.0191C20.0194 8.47721 19.8798 6.9373 19.5812 5.42444V5.42527ZM8.0011 12.8515V7.1492L13.2171 10.0008L8.0011 12.8515Z" fill="#0B0D0F"/>
</g>
<defs>
<clipPath id="clip0_211_681">
<rect width="20" height="20" fill="white"/>
</clipPath>
</defs>
</svg>
